<svg id="Layer_1-2" data-name="Layer 1-2" xmlns="http://www.w3.org/2000/svg" width="164.567" height="38.146" viewBox="0 0 164.567 38.146">
  <path id="Path_1" data-name="Path 1" d="M17.84,37.729l-4.506-8.968a27.533,27.533,0,0,1-3.992.316H6.429v8.7H0V.97H8.542C20.7.97,25.164,7.707,25.164,15.023c0,4.638-1.879,9.056-6.106,11.646l6.48,11.059ZM9.533,23.14c6.106,0,9.342-3.3,9.342-8.116S15.543,6.951,9.533,6.951h-3.1V23.14Z" transform="translate(0 -0.258)" fill="#fff"/>
  <path id="Path_2" data-name="Path 2" d="M38.77,1.03H59.942v5.8H45.2v9.415H58.716v5.4H45.2V31.9H59.942v5.841H38.77V1.03Z" transform="translate(-10.318 -0.274)" fill="#fff"/>
  <path id="Path_3" data-name="Path 3" d="M151.909,31.588h-20.79l-2.451,6.157H124.83l14.9-36.715h3.97l14.362,36.715h-3.75L151.9,31.588Zm-1.248-3.214L141.694,5.22l-9.276,23.153Z" transform="translate(-33.223 -0.274)" fill="#fff"/>
  <path id="Path_4" data-name="Path 4" d="M173.89,1.03h3.8V37.745h-3.8Z" transform="translate(-46.28 -0.274)" fill="#fff"/>
  <path id="Path_5" data-name="Path 5" d="M186.69,1.014h3.853l19.91,30.154V.97h3.8V37.729h-3.706L190.5,7.4v30.33h-3.8V1.014Z" transform="translate(-49.686 -0.258)" fill="#fff"/>
  <path id="Path_6" data-name="Path 6" d="M95.389,19.227V20.35a2.11,2.11,0,1,1-2.113-2.121V15.294A5.042,5.042,0,1,0,97.8,22.529h11.081C107.431,29.442,101,34.616,93.253,34.616c-9.342,0-16.336-6.913-16.336-15.521S83.962,3.618,93.253,3.618c7.559,0,13.752,4.865,15.352,11.419h4.176C110.946,6.649,103.3,0,93.253,0,81.563,0,73.16,8.88,73.16,19.051s8.4,19.095,20.093,19.095,19.954-8.784,20-18.911H95.389Z" transform="translate(-19.471)" fill="#fff"/>
</svg>
